<svg xmlns="http://www.w3.org/2000/svg" width="574.545" height="439.225" viewBox="0 0 574.545 439.225"><defs><style>.a{fill:#fff0e2;}.b{fill:#ffd3d6;}.c{fill:#f4a55c;}.d,.i,.m,.s{fill:#fff;}.d,.g,.h,.j,.m,.n,.s,.t{stroke:#000;}.e{fill:#e61c29;}.f{fill:#ff7c85;}.g,.h,.j,.n,.t,.v{fill:none;}.g,.h,.j,.m,.n{stroke-linecap:round;}.h,.m,.n,.s{stroke-linejoin:round;}.j,.n{stroke-width:2px;}.k{fill:#e64d57;}.l{fill:#fbb06a;}.o,.p{fill:rgba(230,28,41,0.4);}.p{opacity:0.362;}.q{fill:#facda4;}.r{fill:#fff1e5;}.u,.w{stroke:none;}</style></defs><path class="a" d="M743.965,1776.135s.7-81.658,88.727-80.621c30.287-44.27,71.282-47.044,71.282-47.044h116.764l54.667,127.378Z" transform="translate(-635.539 -1386.26)"/><path class="b" d="M191.609,0l64.927,72.109-63.451,71.4.74,24.415s-37.715,87.37-43.14,93.811-73.522,60.74-76.2,61.845-17.718-2.515-20.16-4.172-30.7-25.8-33.186-28.908S11.259,269.011,10.2,264.124-1.589,169.577.2,162.482,52.721,98.317,61.785,90.2,191.609,0,191.609,0Z" transform="translate(574.545 248.582) rotate(132)"/><path class="c" d="M853.008,1776.943s16.521-153.1,17.773-159.932,7.508-37.748,12.781-43.331,64.816-42.986,71.679-43.391,41.309,15.172,41.309,15.172l-23.375,55.461s-23.849-15.874-27.415-15.62-36.982,22.92-40.15,26.42-13.546,30.6-12.593,36.716,127.8,128.505,127.8,128.505Z" transform="translate(-640.539 -1387.26)"/><path class="d" d="M993.585,1706.428l-10.19,6.432-4.309-1.563,13.827-15.086Z" transform="translate(-629.539 -1557.26)"/><path class="e" d="M116.709,5.388C164.15-7.492,177.086,1.6,192.876,44.873s-45.515,122.8-106.554,125.89S-11.229,137,3.111,96.394,69.268,18.268,116.709,5.388Z" transform="matrix(0.995, 0.105, -0.105, 0.995, 17.869, 0)"/><path class="f" d="M60.509.006c26.927-.363,37.144,17.059,44.947,38.444C90.494,64.8,71.308,84.107,40.019,92.975,9.854,94.5-5.368,63.434,1.719,43.365S33.582.369,60.509.006Z" transform="matrix(0.995, 0.105, -0.105, 0.995, 82.737, 78.436)"/><g transform="translate(94.45 92.833) rotate(8)"><path class="g" d="M0,0C22.288,9.823,26.862,36.579,26.862,36.579" transform="matrix(0.819, -0.574, 0.574, 0.819, 10.154, 55.802)"/><path class="g" d="M0,0C21.665,17.962,15.041,43.215,15.041,43.215" transform="matrix(-0.934, -0.358, 0.358, -0.934, 73.399, 55.018)"/><path class="g" d="M0,0C31.212,18.278,38.219,46.941,38.219,46.941" transform="matrix(-0.934, -0.358, 0.358, -0.934, 67.956, 57.52)"/><path class="g" d="M0,0C31.212,18.278,61.831,18.5,61.831,18.5" transform="matrix(-0.934, -0.358, 0.358, -0.934, 57.724, 65.256)"/><path class="g" d="M0,0C31.212,18.278,63.02,41.092,63.02,41.092" transform="matrix(-0.934, -0.358, 0.358, -0.934, 62.148, 61.651)"/></g><g transform="translate(138.254 170.74)"><path class="h" d="M836.552,1265.277s6.787,5.185,7.46,6.749,0,21.1,0,21.1a36.951,36.951,0,0,1-9.94-12.548" transform="translate(-806.792 -1242)"/><path class="g" d="M825.55,1268.594c.906,13.163,14.317,9.035,14.317,9.035" transform="translate(-806.792 -1242)"/><path class="h" d="M841.017,1262.447s7.53,6.734,8.653,8.287,3.88,17.787,3.88,17.787l-9.229-7.96" transform="translate(-806.792 -1242)"/><path d="M.383.02c1.026-.3,5.3,2.973,5.705,4.37S3.413,6.7,1.986,5.6-.642.324.383.02Z" transform="matrix(0.883, -0.469, 0.469, 0.883, 36.254, 50.774)"/><path d="M.383.02c1.026-.3,5.3,2.973,5.705,4.37S3.413,6.7,1.986,5.6-.642.324.383.02Z" transform="matrix(0.883, -0.469, 0.469, 0.883, 45.254, 45.774)"/><path d="M806.867,1266.237c1.137-1.293,9.2-.571,10.276-1.077s5.4-7.093,5.935-7.882,4.567-2.66,5.707-2.64,14.134,1.167,15.273,1.021,9.14-6.285,9.551-5.88-6.4,6.979-7.908,7.5-11.144,7.959-25.936,10.031C817.919,1267.307,805.73,1267.531,806.867,1266.237Z" transform="translate(-806.792 -1243)"/><g class="d" transform="translate(10.208)"><ellipse class="u" cx="6.5" cy="7" rx="6.5" ry="7"/><ellipse class="v" cx="6.5" cy="7" rx="6" ry="6.5"/></g></g><path class="g" d="M787.6,1740.576v18.487" transform="translate(-648.539 -1569.26)"/><path class="g" d="M0,0,23.756,12.467" transform="matrix(0.998, 0.07, -0.07, 0.998, 160.923, 160.144)"/><g class="i" transform="translate(134.884 191.478)"><path class="u" d="M 3.327177286148071 3.433520317077637 C 2.331717252731323 3.433520317077637 1.598377227783203 3.144640445709229 1.147537112236023 2.574920415878296 C 0.795207142829895 2.129680395126343 0.6871472001075745 1.758050441741943 0.8263771533966064 1.470330357551575 C 1.089667201042175 0.9262204170227051 2.219817161560059 0.5000004172325134 3.399277210235596 0.5000004172325134 C 4.325257301330566 0.5000004172325134 5.623397350311279 1.26028037071228 6.254877090454102 1.970360398292542 C 6.509621143341064 2.256812572479248 6.573559284210205 2.441935300827026 6.579512119293213 2.505665063858032 C 6.153182983398438 2.845760107040405 4.728820323944092 3.433520317077637 3.327177286148071 3.433520317077637 Z"/><path class="w" d="M 3.399277210235596 1.000000476837158 C 2.306677341461182 1.000000476837158 1.412217140197754 1.40755033493042 1.276447296142578 1.688120365142822 C 1.241167068481445 1.761030435562134 1.308467388153076 1.972550392150879 1.53961706161499 2.264650344848633 C 1.8908371925354 2.708480358123779 2.492257118225098 2.933520317077637 3.327177286148071 2.933520317077637 C 4.305300235748291 2.933520317077637 5.335563659667969 2.606427192687988 5.905360698699951 2.329874038696289 C 5.743874549865723 2.14338207244873 5.474180698394775 1.891846656799316 5.079347133636475 1.633820295333862 C 4.481107234954834 1.242870330810547 3.837347269058228 1.000000476837158 3.399277210235596 1.000000476837158 M 3.399277210235596 4.76837158203125e-07 C 5.152477264404297 4.76837158203125e-07 7.78227710723877 2.163890361785889 6.905677318572998 2.885190486907959 C 6.379043102264404 3.318525075912476 4.821022987365723 3.933517932891846 3.32717752456665 3.933517932891846 C 2.334467887878418 3.933517932891846 1.370174884796143 3.662017822265625 0.7554473876953125 2.885190486907959 C -0.7843427658081055 0.939380407333374 1.646077156066895 4.76837158203125e-07 3.399277210235596 4.76837158203125e-07 Z"/></g><g class="i" transform="matrix(-0.602, 0.799, -0.799, -0.602, 188.556, 174.731)"><path class="u" d="M 2.597480773925781 2.837786197662354 C 1.777090907096863 2.837786197662354 1.174800872802734 2.602336168289185 0.807330846786499 2.137956142425537 C 0.5279108881950378 1.784856200218201 0.4391708672046661 1.496416211128235 0.5435908436775208 1.280636191368103 C 0.7518808841705322 0.8501861691474915 1.700700879096985 0.4999961853027344 2.658670902252197 0.4999961853027344 C 3.136070966720581 0.4999961853027344 3.804380893707275 0.7610161900520325 4.402801036834717 1.181206226348877 C 4.9584641456604 1.571362614631653 5.225423336029053 1.93937611579895 5.273720741271973 2.095045804977417 C 4.88623571395874 2.377889394760132 3.734799861907959 2.837786197662354 2.597480773925781 2.837786197662354 Z"/><path class="w" d="M 2.658670902252197 0.9999961853027344 C 1.809298753738403 0.9999961853027344 1.122790336608887 1.30540919303894 1.002374172210693 1.483872652053833 C 1.010624408721924 1.521402597427368 1.046590805053711 1.63455867767334 1.199410915374756 1.827686071395874 C 1.467260837554932 2.166166305541992 1.937640905380249 2.337786197662354 2.597480773925781 2.337786197662354 C 3.337058305740356 2.337786197662354 4.062305927276611 2.12332010269165 4.527849197387695 1.926736354827881 C 4.392794609069824 1.796787023544312 4.206806182861328 1.644215822219849 3.966500759124756 1.490566253662109 C 3.493260860443115 1.187966108322144 2.992130756378174 0.9999961853027344 2.658670902252197 0.9999961853027344 M 2.658670902252197 -3.814697265625e-06 C 4.146350860595703 -3.814697265625e-06 6.377871036529541 1.836176156997681 5.634030818939209 2.4482262134552 C 5.187154769897461 2.815932750701904 3.865089416503906 3.337790250778198 2.59748387336731 3.337790250778198 C 1.755117654800415 3.337790250778198 0.9368681907653809 3.10740852355957 0.4152407646179199 2.4482262134552 C -0.8913493156433105 0.7971062660217285 1.170990943908691 -3.814697265625e-06 2.658670902252197 -3.814697265625e-06 Z"/></g><line class="j" x1="446" transform="translate(70.961 390.24)"/><path class="e" d="M116.563-47.558C164-60.438,176.94-51.346,192.73-8.073s-45.515,122.8-106.554,125.89S-11.375,84.058,2.965,43.448,69.121-34.678,116.563-47.558Z" transform="translate(216.545 278.69)"/><path class="k" d="M98.378-36.216c32.8,13.49,40.2-4.978,32.7,22.981S96.1,82.007,68.394,75.623s-48.661-35.6-41.165-63.562S65.58-49.706,98.378-36.216Z" transform="translate(274.671 288.793)"/><path class="l" d="M945.363,1585,955,1529.968s121.472,35.61,125.617,42.615-1.4,203.934-1.4,203.934h-46.454s18.608-23.952,19.839-27.282,8.831-45.824,8.737-49.037-11.392-28.784-12.366-28.818-13.2,27.2-14.678,28.818-6.9,6.936-8.021,8.445-8.574,15.276-9.051,18.419,2.958,49.421,2.958,49.421l-41.382-.053s16.89-59.444,18.284-65.224,17.864-52.046,18.44-53.715-.794-3.42-1.557-5.295-33.7-44.221-40.4-49.183S945.363,1585,945.363,1585Z" transform="translate(-639.539 -1387.26)"/><g transform="translate(349.992 127.546)"><g transform="translate(5.415 5.953)"><path class="d" d="M1017.068,1227.89s24.622,11.96,27.274,9.547-9.562-18.227-21.273-21.352A62.943,62.943,0,0,0,1017.068,1227.89Z" transform="translate(-999.945 -1203.759)"/><path class="m" d="M1002.294,1201.759s-2.891,11.989-3.161,13.854.286,11.591.286,11.591-5.23,2.572-5.443,3.525a4.833,4.833,0,0,0,1.454,3.477,3.445,3.445,0,0,0,2.993.515c.836-.431,3.271-5.674,3.271-5.674h0l2.707-7.818,6.84,3.351s-3.14,5.182-3.163,6.15,1.39,3.784,2.223,3.992,14.165-1.7,14.767-2.354,1.278-1.288.766-1.791-8.192-2.616-8.282-3.011,6.907-4.147,7.509-4.735a13.648,13.648,0,0,0,3.611-8.012c.175-4.057-.077-4.774-3.218-7.61s-9.739-3.9-9.739-3.9Z" transform="translate(-993.945 -1201.759)"/><path d="M7.212-3.478c.623-.419.421,3.729-.568,5.264A3.993,3.993,0,0,1,2.7,3.822C.765,3.822-.8,2.927-.634,1.786-.546,1.172,2.154-.77,4.966-1.4A9.368,9.368,0,0,0,7.212-3.478Z" transform="translate(25.055 32.241)"/><path d="M6.644-3.282c.623-.419.989,3.533,0,5.068s-5.525,1.142-5.361,0c.088-.614.677-1.6,3.49-2.231C6.225-1.306,6.356-3.088,6.644-3.282Z" transform="translate(38.055 34.241)"/><g transform="translate(10.308 13.021)"><path class="g" d="M-.418,5.312,2.808-.165" transform="translate(7.247 4.72)"/><path class="g" d="M-.247,5.18l2.464-6.9" transform="translate(0.247 1.72)"/></g></g><path d="M756.684,2092.922l-.405-3.078,2.751,1.843-.572.781Z" transform="translate(-755 -2078.449)"/><g class="i" transform="translate(0 -0.449)"><path class="u" d="M 7.234908580780029 15.14351844787598 C 3.521268606185913 15.14351844787598 0.4999985694885254 11.82719898223877 0.4999985694885254 7.750888824462891 C 0.4999985694885254 5.846178531646729 1.270508527755737 4.100858688354492 2.669588565826416 2.836448669433594 C 3.996618509292603 1.637168645858765 5.817558765411377 0.9493386745452881 7.665488719940186 0.9493386745452881 C 9.492128372192383 0.9493386745452881 11.06063842773438 1.591928720474243 12.20144844055176 2.807638645172119 C 13.3583288192749 4.040478706359863 13.96981811523438 5.749828815460205 13.96981811523438 7.750888824462891 C 13.96981811523438 11.82719898223877 10.94854831695557 15.14351844787598 7.234908580780029 15.14351844787598 Z"/><path class="w" d="M 7.665488719940186 1.449338912963867 C 5.939868927001953 1.449338912963867 4.241128921508789 2.090128898620605 3.004838943481445 3.207408905029297 C 1.71199893951416 4.375798225402832 0.9999990463256836 5.989378929138184 0.9999990463256836 7.750888824462891 C 0.9999990463256836 11.55149841308594 3.796968460083008 14.64351844787598 7.234908580780029 14.64351844787598 C 10.67284870147705 14.64351844787598 13.46981811523438 11.55149841308594 13.46981811523438 7.750888824462891 C 13.46981811523438 3.981739044189453 11.13723850250244 1.449338912963867 7.665488719940186 1.449338912963867 M 7.665488719940186 0.4493389129638672 C 11.66121864318848 0.4493389129638672 14.46981811523438 3.391908645629883 14.46981811523438 7.750888824462891 C 14.46981811523438 12.1098690032959 11.23063850402832 15.64351844787598 7.234908580780029 15.64351844787598 C 3.239178657531738 15.64351844787598 -9.5367431640625e-07 12.1098690032959 -9.5367431640625e-07 7.750888824462891 C -9.5367431640625e-07 3.391908645629883 3.669758796691895 0.4493389129638672 7.665488719940186 0.4493389129638672 Z"/></g><path class="h" d="M980.671,1696.072l.569,4.348,1.269-.541,1.227-.21" transform="translate(-979.608 -1685.792)"/></g><g transform="translate(425.052 283.398)"><path class="n" d="M1061.591,1353.78l1.474,13.691v11.077l1.48,19.6,1.451,24.577,1.381,35.468" transform="translate(-1061.591 -1349.658)"/><path class="n" d="M1077.925,1349.658l1.482,11.135,3.8,15.78,2.853,22.849,1.7,20.422,4.021,36.047" transform="translate(-1061.591 -1349.658)"/><path class="j" d="M1063.1,1367.817l17.2-1.016" transform="translate(-1061.591 -1349.658)"/><path class="j" d="M1082.953,1376.25l-19.973,1.791" transform="translate(-1061.591 -1349.658)"/><path class="j" d="M1064.021,1389.3l20.067-2.316" transform="translate(-1061.591 -1349.658)"/><path class="j" d="M1065.075,1400.408l20.848-2.373" transform="translate(-1061.591 -1349.658)"/><path class="n" d="M1065.751,1411.673l11.242-2.593h9.43" transform="translate(-1061.591 -1349.658)"/><path class="n" d="M1087.876,1420.062l-11,.39-10.77,2.554" transform="translate(-1061.591 -1349.658)"/><path class="n" d="M1066.617,1436.024l11.779-1.4,11.243-1.016" transform="translate(-1061.591 -1349.658)"/><path class="n" d="M1065.751,1448.243h11.308l5.751-1.352,9.169-.43" transform="translate(-1061.591 -1349.658)"/></g><circle class="o" cx="3.5" cy="3.5" r="3.5" transform="translate(342.961 83.74)"/><circle class="o" cx="10.5" cy="10.5" r="10.5" transform="translate(414.961 47.74)"/><circle class="p" cx="8.5" cy="8.5" r="8.5" transform="translate(450.961 104.74)"/><circle class="q" cx="4.5" cy="4.5" r="4.5" transform="translate(84.961 348.74)"/><circle class="q" cx="3.5" cy="3.5" r="3.5" transform="translate(159.961 373.74)"/><circle class="r" cx="3.5" cy="3.5" r="3.5" transform="translate(176.961 289.74)"/><g transform="translate(182.059 340.492)"><path class="s" d="M876.58,1475.044l-4.985,1.7-15.274,5.818s-4.272-4.122-3.594-4.913,15.956-5.477,16.195-6.795-4.672-9.031,4.244-15.814c2.047-7.823,1.928-12.54,3.414-13.856s17.185-5.285,19.557-6.513,10.154-9.973,11.926-12.7,6.529-5.279,7.35-5.218.4,2.415.4,2.415-7.254,11.292-8.351,12.47-15.859,14.529-15.859,14.529-4.187,9.846-4.572,11.295,3.648,9.15,3.623,10.981-12.825,18.316-12.825,18.316l-4.667-1.53S877.175,1475.154,876.58,1475.044Z" transform="translate(-849.597 -1416.751)"/><path class="t" d="M879.933,1454.489c-7.876,7.676-1.287,15.207-1.287,15.207l-2.675,8" transform="translate(-849.597 -1416.751)"/><path class="t" d="M909.32,1422.873c1.589-.2,3.08-.048,3.857-.369,1.023-.416,1.823-2.428,1.823-2.428" transform="translate(-850.018 -1415.751)"/><path class="t" d="M883.468,1445.96s8.2-.37,12.009-3.429" transform="translate(-849.597 -1416.751)"/><path d="M877.952,1440.574l-9.6,2.412s25.408-25.591,30.419-17.031-9.556,10.895-9.556,10.895Z" transform="translate(-849.597 -1416.751)"/><path d="M6.424.465C10.013.465,13.127-.608,13,2S8.6,4.664,5.132,4.135.627,1.364.667.239,2.834.465,6.424.465Z" transform="translate(22.403 68.249)"/><path d="M6.662.739c3.914,0,7.309-1.013,7.171,1.448S9.038,4.7,5.254,4.2-.043,1.458,0,.4,2.748.739,6.662.739Z" transform="translate(2.979 60.17) rotate(42)"/></g></svg>